<?xml version="1.0" encoding="UTF-8"?>
<svg xmlns="http://www.w3.org/2000/svg" viewBox="0 0 643.08 455.01" fill="currentColor">
  <path d="M86.45,455.01c-.51-1.9-.92-2.94-.6-5.01.8-5.31,7.64-20.13,10.14-25.96,7.31-17.08,16.44-33.31,24.47-50.02-32.25,11.48-61.12,30.17-90.96,46.56l-2.57-.54c-2-3.14,5.18-13.68,7.11-16.94,23.07-39.01,55.82-69.72,91.42-97.07-25.24-.24-50.42,3.38-75.33,7.16-7.75,1.18-38.09,8.23-43.01,6.67-.98-.31-1.9-1.21-1.65-2.32,29.9-27.98,66.78-47.38,104.74-62.27l32.24-10.24c-40.02-15.28-82.35-22.71-124.47-30.04-8.78-3.24,1.4-6.23,5.23-7.72,30.56-11.94,73.95-19.65,106.76-21.24,13.94-.68,28.07.71,42.01,0,1.13-.06,2.75.65,2.48-.99-20.39-12.44-40.38-25.62-61.32-37.19-17.4-9.61-40.55-18.35-56.37-28.63-.97-.63-2.65-1.12-2.3-2.69,1.45-1.8,3.28-2.28,5.48-2.53,19.23-2.23,50.19.8,69.89,3.15,31.7,3.78,62.63,11.75,93.63,18.86l-28.97-31.52c-15.49-15.63-31.76-30.34-49.11-43.89-3.03-2.37-20.52-13.36-19.91-16.07l2.48-1.54c57.36,10.87,111.49,34.71,161.51,64.03.71-.78-3.76-7.54-4.57-8.92-9.9-16.74-22.37-34.37-34-50-8.83-11.87-22.31-25.41-29.86-37.13-1.02-1.58-1.84-2.95-1.54-4.95,2.11-1.99,21.19,8.03,24.67,9.82,44.29,22.8,83.93,54.56,120.32,88.17-8.44-29.87-21.18-58.53-35.47-86.02-2.79-5.36-8.72-12.14-8.01-17.99,5.12-.4,31.65,20.54,36.96,25.04,28.37,24.06,53.71,54.63,73.54,85.96,1.65.27.92-1.35.99-2.47.48-8.66-1-22.04-2.13-30.89-1.94-15.2-5.85-30.29-9.78-45.05l2.42-1.61c34,29.31,54.76,74.03,64.44,117.59,8.61,5.35,17.56,10.25,25.78,16.22,29.75,21.59,42.95,47.66,79.6,63.4,8.84,3.79,29.83,8.65,35.68,14.32,12.42,12.06-2.14,30.95-11.35,40.15-29.43,29.42-60.58,34.03-98.28,44.22-31.78,8.59-48.45,31.45-40.71,64.97,7.64,33.08,32.69,29.52,43.53,51.47,1.66,3.37,3.36,7.93,3.81,11.69M451.44,420.01c1.4-1.82-10.79-18.77-12.77-21.72-42.22-62.92-91.71-121.93-138.75-181.26,8.6-15.07,9.91-32.44-1.49-46.5-16.1-19.85-48.64-15.48-60.15,6.8-15.9,30.81,16.07,65,47.15,49.67.03.93.4,1.78.99,2.48,31.48,37.26,61.53,75.67,93.52,112.53,20.39,23.5,43.7,51.95,65.47,73.53.67.66,5.8,4.76,6.04,4.45v.02ZM499.09,203.33c-15.36.88-15.12,27.91,1.85,26.74,15.92-1.09,14.96-27.7-1.85-26.74Z"/>
</svg>